<mxfile host="app.diagrams.net" modified="2023-01-31T19:25:58.301Z" agent="5.0 (Macintosh; Intel Mac OS X 10_15_7) AppleWebKit/537.36 (KHTML, like Gecko) Chrome/109.0.0.0 Safari/537.36" etag="Q7OkVYaNJ_UWX1AjlwE1" version="20.8.10" type="github">
  <diagram id="C5RBs43oDa-KdzZeNtuy" name="Page-1">
    <mxGraphModel dx="1925" dy="1725" grid="1" gridSize="10" guides="1" tooltips="1" connect="1" arrows="1" fold="1" page="1" pageScale="1" pageWidth="827" pageHeight="1169" math="0" shadow="0">
      <root>
        <mxCell id="WIyWlLk6GJQsqaUBKTNV-0" />
        <mxCell id="WIyWlLk6GJQsqaUBKTNV-1" parent="WIyWlLk6GJQsqaUBKTNV-0" />
        <mxCell id="JFZDc9M5QBFUGFOhNHaX-1" value="" style="ellipse;whiteSpace=wrap;html=1;fillColor=#FFB366;" vertex="1" parent="WIyWlLk6GJQsqaUBKTNV-1">
          <mxGeometry x="530" y="-82.5" width="110" height="40" as="geometry" />
        </mxCell>
        <mxCell id="JFZDc9M5QBFUGFOhNHaX-2" value="submit&lt;br&gt;checkpoint" style="text;strokeColor=none;align=center;fillColor=none;html=1;verticalAlign=middle;whiteSpace=wrap;rounded=0;" vertex="1" parent="WIyWlLk6GJQsqaUBKTNV-1">
          <mxGeometry x="530" y="-82.5" width="110" height="40" as="geometry" />
        </mxCell>
        <mxCell id="JFZDc9M5QBFUGFOhNHaX-8" value="" style="rhombus;whiteSpace=wrap;html=1;fillColor=#FFB366;" vertex="1" parent="WIyWlLk6GJQsqaUBKTNV-1">
          <mxGeometry x="480" y="187.5" width="210" height="80" as="geometry" />
        </mxCell>
        <mxCell id="JFZDc9M5QBFUGFOhNHaX-7" value="witness.L2_block_hash&lt;br&gt;&amp;nbsp;==&amp;nbsp;block_hash&amp;amp;&amp;amp;&lt;br&gt;check&amp;nbsp;bls_puk_key" style="text;strokeColor=none;align=center;fillColor=none;html=1;verticalAlign=middle;whiteSpace=wrap;rounded=0;" vertex="1" parent="WIyWlLk6GJQsqaUBKTNV-1">
          <mxGeometry x="500" y="187.5" width="170" height="80" as="geometry" />
        </mxCell>
        <mxCell id="JFZDc9M5QBFUGFOhNHaX-15" value="" style="rhombus;whiteSpace=wrap;html=1;fontSize=14;fillColor=#FFB366;" vertex="1" parent="WIyWlLk6GJQsqaUBKTNV-1">
          <mxGeometry x="480" y="307.5" width="210" height="70" as="geometry" />
        </mxCell>
        <mxCell id="JFZDc9M5QBFUGFOhNHaX-16" value="&lt;font style=&quot;font-size: 12px;&quot;&gt;reward == base_reward/ (2^⌊period/half_period⌋)&lt;/font&gt;" style="text;strokeColor=none;align=center;fillColor=none;html=1;verticalAlign=middle;whiteSpace=wrap;rounded=0;fontSize=14;" vertex="1" parent="WIyWlLk6GJQsqaUBKTNV-1">
          <mxGeometry x="555" y="327.5" width="60" height="30" as="geometry" />
        </mxCell>
        <mxCell id="JFZDc9M5QBFUGFOhNHaX-29" value="Yes" style="edgeStyle=orthogonalEdgeStyle;rounded=0;html=1;jettySize=auto;orthogonalLoop=1;fontSize=11;endArrow=block;endFill=0;endSize=8;strokeWidth=1;shadow=0;labelBackgroundColor=none;" edge="1" parent="WIyWlLk6GJQsqaUBKTNV-1">
          <mxGeometry x="0.0127" y="15" relative="1" as="geometry">
            <mxPoint as="offset" />
            <mxPoint x="584.5" y="267.5" as="sourcePoint" />
            <mxPoint x="585" y="307.5" as="targetPoint" />
            <Array as="points">
              <mxPoint x="585" y="277.5" />
              <mxPoint x="585" y="277.5" />
            </Array>
          </mxGeometry>
        </mxCell>
        <mxCell id="JFZDc9M5QBFUGFOhNHaX-33" value="No" style="rounded=0;html=1;jettySize=auto;orthogonalLoop=1;fontSize=11;endArrow=block;endFill=0;endSize=8;strokeWidth=1;shadow=0;labelBackgroundColor=none;edgeStyle=orthogonalEdgeStyle;entryX=1;entryY=0.5;entryDx=0;entryDy=0;exitX=1;exitY=0.5;exitDx=0;exitDy=0;" edge="1" parent="WIyWlLk6GJQsqaUBKTNV-1" source="JFZDc9M5QBFUGFOhNHaX-15" target="JFZDc9M5QBFUGFOhNHaX-2">
          <mxGeometry y="15" relative="1" as="geometry">
            <mxPoint as="offset" />
            <mxPoint x="640" y="344.5" as="sourcePoint" />
            <mxPoint x="720" y="120" as="targetPoint" />
            <Array as="points">
              <mxPoint x="690" y="345" />
              <mxPoint x="810" y="345" />
              <mxPoint x="810" y="-62" />
            </Array>
          </mxGeometry>
        </mxCell>
        <mxCell id="JFZDc9M5QBFUGFOhNHaX-38" value="" style="ellipse;whiteSpace=wrap;html=1;rounded=0;fontFamily=Helvetica;fontSize=12;fontColor=default;fillColor=#FFE6CC;gradientColor=none;" vertex="1" parent="WIyWlLk6GJQsqaUBKTNV-1">
          <mxGeometry x="-110" y="-80" width="120" height="40" as="geometry" />
        </mxCell>
        <mxCell id="JFZDc9M5QBFUGFOhNHaX-39" value="submit&lt;br&gt;stake" style="text;strokeColor=none;align=center;fillColor=none;html=1;verticalAlign=middle;whiteSpace=wrap;rounded=0;fontSize=12;fontFamily=Helvetica;fontColor=default;" vertex="1" parent="WIyWlLk6GJQsqaUBKTNV-1">
          <mxGeometry x="-80" y="-80" width="60" height="35" as="geometry" />
        </mxCell>
        <mxCell id="JFZDc9M5QBFUGFOhNHaX-47" value="" style="edgeStyle=orthogonalEdgeStyle;rounded=0;orthogonalLoop=1;jettySize=auto;html=1;fontFamily=Helvetica;fontSize=12;fontColor=default;" edge="1" parent="WIyWlLk6GJQsqaUBKTNV-1" source="JFZDc9M5QBFUGFOhNHaX-41" target="JFZDc9M5QBFUGFOhNHaX-7">
          <mxGeometry relative="1" as="geometry" />
        </mxCell>
        <mxCell id="JFZDc9M5QBFUGFOhNHaX-41" value="&lt;font style=&quot;&quot;&gt;&lt;font style=&quot;font-size: 12px;&quot;&gt;get cell.data from&lt;br&gt;input and output cell;&lt;br&gt;&lt;/font&gt;from input cell&lt;br&gt;get stake info &amp;amp;&amp;amp;&lt;br&gt;delegate info&amp;nbsp;&lt;br&gt;&lt;/font&gt;" style="rounded=1;whiteSpace=wrap;html=1;fontSize=12;glass=0;strokeWidth=1;shadow=0;fillColor=#FFB366;" vertex="1" parent="WIyWlLk6GJQsqaUBKTNV-1">
          <mxGeometry x="515" y="77.5" width="140" height="90" as="geometry" />
        </mxCell>
        <mxCell id="JFZDc9M5QBFUGFOhNHaX-43" value="" style="endArrow=classic;html=1;rounded=0;fontSize=12;exitX=0.5;exitY=1;exitDx=0;exitDy=0;" edge="1" parent="WIyWlLk6GJQsqaUBKTNV-1" source="JFZDc9M5QBFUGFOhNHaX-2">
          <mxGeometry width="50" height="50" relative="1" as="geometry">
            <mxPoint x="585" y="57.5" as="sourcePoint" />
            <mxPoint x="585" y="77.5" as="targetPoint" />
          </mxGeometry>
        </mxCell>
        <mxCell id="JFZDc9M5QBFUGFOhNHaX-44" value="" style="endArrow=classic;html=1;rounded=0;fontSize=12;entryX=0.5;entryY=0;entryDx=0;entryDy=0;" edge="1" parent="WIyWlLk6GJQsqaUBKTNV-1" target="JFZDc9M5QBFUGFOhNHaX-7">
          <mxGeometry width="50" height="50" relative="1" as="geometry">
            <mxPoint x="585" y="167.5" as="sourcePoint" />
            <mxPoint x="584.5" y="198.5" as="targetPoint" />
          </mxGeometry>
        </mxCell>
        <mxCell id="JFZDc9M5QBFUGFOhNHaX-45" value="" style="ellipse;whiteSpace=wrap;html=1;rounded=0;fontFamily=Helvetica;fontSize=12;fontColor=default;fillColor=#FFCC99;gradientColor=none;" vertex="1" parent="WIyWlLk6GJQsqaUBKTNV-1">
          <mxGeometry x="220" y="-82.5" width="120" height="40" as="geometry" />
        </mxCell>
        <mxCell id="JFZDc9M5QBFUGFOhNHaX-46" value="submit&lt;br&gt;delegate" style="text;strokeColor=none;align=center;fillColor=none;html=1;verticalAlign=middle;whiteSpace=wrap;rounded=0;fontSize=12;fontFamily=Helvetica;fontColor=default;" vertex="1" parent="WIyWlLk6GJQsqaUBKTNV-1">
          <mxGeometry x="250" y="-82.5" width="60" height="35" as="geometry" />
        </mxCell>
        <mxCell id="JFZDc9M5QBFUGFOhNHaX-50" value="&lt;font style=&quot;font-size: 14px;&quot;&gt;get&amp;nbsp;era, period, unlock_period,&lt;br&gt;quorum_size&lt;br&gt;from dep_cell of&lt;br&gt;checkpoint cell&lt;br&gt;&lt;/font&gt;" style="rounded=1;whiteSpace=wrap;html=1;fontSize=12;glass=0;strokeWidth=1;shadow=0;fillColor=#FFE6CC;" vertex="1" parent="WIyWlLk6GJQsqaUBKTNV-1">
          <mxGeometry x="-130" y="80" width="160" height="90" as="geometry" />
        </mxCell>
        <mxCell id="JFZDc9M5QBFUGFOhNHaX-51" value="withdraw_amount&amp;lt;=0" style="rhombus;whiteSpace=wrap;html=1;rounded=0;fontFamily=Helvetica;fontSize=12;fontColor=default;fillColor=#FFE6CC;gradientColor=none;" vertex="1" parent="WIyWlLk6GJQsqaUBKTNV-1">
          <mxGeometry x="-125" y="200" width="150" height="80" as="geometry" />
        </mxCell>
        <mxCell id="JFZDc9M5QBFUGFOhNHaX-53" value="&lt;font style=&quot;font-size: 14px;&quot;&gt;withdraw AT cell&lt;br&gt;&lt;/font&gt;" style="rounded=1;whiteSpace=wrap;html=1;fontSize=12;glass=0;strokeWidth=1;shadow=0;" vertex="1" parent="WIyWlLk6GJQsqaUBKTNV-1">
          <mxGeometry x="-115" y="480" width="140" height="40" as="geometry" />
        </mxCell>
        <mxCell id="JFZDc9M5QBFUGFOhNHaX-55" value="No" style="rounded=0;html=1;jettySize=auto;orthogonalLoop=1;fontSize=11;endArrow=block;endFill=0;endSize=8;strokeWidth=1;shadow=0;labelBackgroundColor=none;edgeStyle=orthogonalEdgeStyle;" edge="1" parent="WIyWlLk6GJQsqaUBKTNV-1">
          <mxGeometry x="0.5" y="20" relative="1" as="geometry">
            <mxPoint as="offset" />
            <mxPoint x="-50.5" y="310" as="sourcePoint" />
            <mxPoint x="-50" y="480" as="targetPoint" />
            <Array as="points">
              <mxPoint x="-50" y="280" />
            </Array>
          </mxGeometry>
        </mxCell>
        <mxCell id="JFZDc9M5QBFUGFOhNHaX-57" value="&lt;font style=&quot;font-size: 14px;&quot;&gt;update&amp;nbsp;&lt;br&gt;stake info&lt;br&gt;&lt;/font&gt;" style="rounded=1;whiteSpace=wrap;html=1;fontSize=12;glass=0;strokeWidth=1;shadow=0;fillColor=#FFE6CC;" vertex="1" parent="WIyWlLk6GJQsqaUBKTNV-1">
          <mxGeometry x="70" y="215" width="100" height="50" as="geometry" />
        </mxCell>
        <mxCell id="JFZDc9M5QBFUGFOhNHaX-58" value="&lt;font style=&quot;font-size: 14px;&quot;&gt;get stake info&lt;br&gt;update {delegate lock cell}.data.smt_root&lt;br&gt;&lt;/font&gt;" style="rounded=1;whiteSpace=wrap;html=1;fontSize=12;glass=0;strokeWidth=1;shadow=0;fillColor=#FFCC99;" vertex="1" parent="WIyWlLk6GJQsqaUBKTNV-1">
          <mxGeometry x="210" y="195" width="160" height="90" as="geometry" />
        </mxCell>
        <mxCell id="JFZDc9M5QBFUGFOhNHaX-60" value="Yes" style="edgeStyle=orthogonalEdgeStyle;rounded=0;html=1;jettySize=auto;orthogonalLoop=1;fontSize=11;endArrow=block;endFill=0;endSize=8;strokeWidth=1;shadow=0;labelBackgroundColor=none;" edge="1" parent="WIyWlLk6GJQsqaUBKTNV-1">
          <mxGeometry x="-0.4286" y="20" relative="1" as="geometry">
            <mxPoint as="offset" />
            <mxPoint x="25" y="239.5" as="sourcePoint" />
            <mxPoint x="70" y="240" as="targetPoint" />
            <Array as="points">
              <mxPoint x="45" y="239.5" />
              <mxPoint x="45" y="239.5" />
            </Array>
          </mxGeometry>
        </mxCell>
        <mxCell id="JFZDc9M5QBFUGFOhNHaX-63" value="" style="endArrow=classic;html=1;rounded=0;fontSize=12;" edge="1" parent="WIyWlLk6GJQsqaUBKTNV-1">
          <mxGeometry width="50" height="50" relative="1" as="geometry">
            <mxPoint x="770" y="600" as="sourcePoint" />
            <mxPoint x="810" y="340" as="targetPoint" />
            <Array as="points">
              <mxPoint x="810" y="600" />
            </Array>
          </mxGeometry>
        </mxCell>
        <mxCell id="JFZDc9M5QBFUGFOhNHaX-64" value="" style="endArrow=classic;html=1;rounded=0;fontSize=12;" edge="1" parent="WIyWlLk6GJQsqaUBKTNV-1">
          <mxGeometry width="50" height="50" relative="1" as="geometry">
            <mxPoint x="170" y="240" as="sourcePoint" />
            <mxPoint x="210" y="239.5" as="targetPoint" />
          </mxGeometry>
        </mxCell>
        <mxCell id="JFZDc9M5QBFUGFOhNHaX-65" value="" style="endArrow=classic;html=1;rounded=0;fontSize=12;exitX=1;exitY=0.5;exitDx=0;exitDy=0;" edge="1" parent="WIyWlLk6GJQsqaUBKTNV-1" source="JFZDc9M5QBFUGFOhNHaX-77">
          <mxGeometry width="50" height="50" relative="1" as="geometry">
            <mxPoint x="370" y="239.5" as="sourcePoint" />
            <mxPoint x="510" y="120" as="targetPoint" />
            <Array as="points">
              <mxPoint x="400" y="370" />
              <mxPoint x="400" y="240" />
              <mxPoint x="400" y="120" />
            </Array>
          </mxGeometry>
        </mxCell>
        <mxCell id="JFZDc9M5QBFUGFOhNHaX-66" value="meet&amp;nbsp;&lt;br&gt;DelegateLimit&lt;br&gt;struct" style="rhombus;whiteSpace=wrap;html=1;rounded=0;fontFamily=Helvetica;fontSize=12;fontColor=default;fillColor=#FFCC99;gradientColor=none;" vertex="1" parent="WIyWlLk6GJQsqaUBKTNV-1">
          <mxGeometry x="210" y="80" width="140" height="70" as="geometry" />
        </mxCell>
        <mxCell id="JFZDc9M5QBFUGFOhNHaX-67" value="" style="endArrow=classic;html=1;rounded=0;fontFamily=Helvetica;fontSize=12;fontColor=default;entryX=0.5;entryY=0;entryDx=0;entryDy=0;" edge="1" parent="WIyWlLk6GJQsqaUBKTNV-1" target="JFZDc9M5QBFUGFOhNHaX-66">
          <mxGeometry width="50" height="50" relative="1" as="geometry">
            <mxPoint x="280" y="-40" as="sourcePoint" />
            <mxPoint x="250" y="60" as="targetPoint" />
          </mxGeometry>
        </mxCell>
        <mxCell id="JFZDc9M5QBFUGFOhNHaX-68" value="" style="endArrow=classic;html=1;rounded=0;fontFamily=Helvetica;fontSize=12;fontColor=default;entryX=0.5;entryY=0;entryDx=0;entryDy=0;" edge="1" parent="WIyWlLk6GJQsqaUBKTNV-1">
          <mxGeometry width="50" height="50" relative="1" as="geometry">
            <mxPoint x="-50.5" y="-40" as="sourcePoint" />
            <mxPoint x="-50.5" y="80" as="targetPoint" />
          </mxGeometry>
        </mxCell>
        <mxCell id="JFZDc9M5QBFUGFOhNHaX-70" value="No" style="rounded=0;html=1;jettySize=auto;orthogonalLoop=1;fontSize=11;endArrow=block;endFill=0;endSize=8;strokeWidth=1;shadow=0;labelBackgroundColor=none;edgeStyle=orthogonalEdgeStyle;" edge="1" parent="WIyWlLk6GJQsqaUBKTNV-1">
          <mxGeometry y="15" relative="1" as="geometry">
            <mxPoint as="offset" />
            <mxPoint x="210" y="114.5" as="sourcePoint" />
            <mxPoint x="140" y="115" as="targetPoint" />
            <Array as="points">
              <mxPoint x="200" y="114.5" />
              <mxPoint x="200" y="114.5" />
            </Array>
          </mxGeometry>
        </mxCell>
        <mxCell id="JFZDc9M5QBFUGFOhNHaX-71" value="" style="ellipse;whiteSpace=wrap;html=1;rounded=0;fontFamily=Helvetica;fontSize=12;fontColor=default;fillColor=#FFFFFF;gradientColor=none;" vertex="1" parent="WIyWlLk6GJQsqaUBKTNV-1">
          <mxGeometry x="70" y="90" width="75" height="50" as="geometry" />
        </mxCell>
        <mxCell id="JFZDc9M5QBFUGFOhNHaX-72" value="Fail" style="text;strokeColor=none;align=center;fillColor=none;html=1;verticalAlign=middle;whiteSpace=wrap;rounded=0;fontSize=12;fontFamily=Helvetica;fontColor=default;" vertex="1" parent="WIyWlLk6GJQsqaUBKTNV-1">
          <mxGeometry x="77.5" y="100" width="60" height="30" as="geometry" />
        </mxCell>
        <mxCell id="JFZDc9M5QBFUGFOhNHaX-74" value="Yes" style="edgeStyle=orthogonalEdgeStyle;rounded=0;html=1;jettySize=auto;orthogonalLoop=1;fontSize=11;endArrow=block;endFill=0;endSize=8;strokeWidth=1;shadow=0;labelBackgroundColor=none;" edge="1" parent="WIyWlLk6GJQsqaUBKTNV-1" source="JFZDc9M5QBFUGFOhNHaX-66">
          <mxGeometry x="0.6787" y="-20" relative="1" as="geometry">
            <mxPoint as="offset" />
            <mxPoint x="280" y="110" as="sourcePoint" />
            <mxPoint x="279.5" y="195" as="targetPoint" />
            <Array as="points" />
          </mxGeometry>
        </mxCell>
        <mxCell id="JFZDc9M5QBFUGFOhNHaX-76" value="" style="endArrow=classic;html=1;rounded=0;fontSize=12;" edge="1" parent="WIyWlLk6GJQsqaUBKTNV-1">
          <mxGeometry width="50" height="50" relative="1" as="geometry">
            <mxPoint x="-50.5" y="170" as="sourcePoint" />
            <mxPoint x="-50" y="200" as="targetPoint" />
          </mxGeometry>
        </mxCell>
        <mxCell id="JFZDc9M5QBFUGFOhNHaX-77" value="withdraw_amount&amp;lt;=0" style="rhombus;whiteSpace=wrap;html=1;rounded=0;fontFamily=Helvetica;fontSize=12;fontColor=default;fillColor=#FFCC99;gradientColor=none;" vertex="1" parent="WIyWlLk6GJQsqaUBKTNV-1">
          <mxGeometry x="210" y="330" width="140" height="80" as="geometry" />
        </mxCell>
        <mxCell id="JFZDc9M5QBFUGFOhNHaX-78" value="Yes" style="text;strokeColor=none;align=center;fillColor=none;html=1;verticalAlign=middle;whiteSpace=wrap;rounded=0;fontSize=12;fontFamily=Helvetica;fontColor=default;" vertex="1" parent="WIyWlLk6GJQsqaUBKTNV-1">
          <mxGeometry x="350" y="340" width="60" height="30" as="geometry" />
        </mxCell>
        <mxCell id="JFZDc9M5QBFUGFOhNHaX-79" value="" style="endArrow=classic;html=1;rounded=0;fontSize=12;" edge="1" parent="WIyWlLk6GJQsqaUBKTNV-1">
          <mxGeometry width="50" height="50" relative="1" as="geometry">
            <mxPoint x="279.5" y="285" as="sourcePoint" />
            <mxPoint x="280" y="330" as="targetPoint" />
          </mxGeometry>
        </mxCell>
        <mxCell id="JFZDc9M5QBFUGFOhNHaX-81" value="&lt;font style=&quot;font-size: 14px;&quot;&gt;withdraw AT cell&lt;br&gt;&lt;/font&gt;" style="rounded=1;whiteSpace=wrap;html=1;fontSize=12;glass=0;strokeWidth=1;shadow=0;" vertex="1" parent="WIyWlLk6GJQsqaUBKTNV-1">
          <mxGeometry x="210" y="480" width="140" height="40" as="geometry" />
        </mxCell>
        <mxCell id="JFZDc9M5QBFUGFOhNHaX-82" value="" style="endArrow=classic;html=1;rounded=0;fontSize=12;entryX=0.5;entryY=1;entryDx=0;entryDy=0;" edge="1" parent="WIyWlLk6GJQsqaUBKTNV-1" target="JFZDc9M5QBFUGFOhNHaX-81">
          <mxGeometry width="50" height="50" relative="1" as="geometry">
            <mxPoint x="280" y="590" as="sourcePoint" />
            <mxPoint x="-290" y="500" as="targetPoint" />
          </mxGeometry>
        </mxCell>
        <mxCell id="JFZDc9M5QBFUGFOhNHaX-83" value="" style="rhombus;whiteSpace=wrap;html=1;rounded=0;fontFamily=Helvetica;fontSize=12;fontColor=default;fillColor=#FFB366;gradientColor=none;" vertex="1" parent="WIyWlLk6GJQsqaUBKTNV-1">
          <mxGeometry x="585" y="540" width="190" height="100" as="geometry" />
        </mxCell>
        <mxCell id="JFZDc9M5QBFUGFOhNHaX-86" value="Yes" style="text;strokeColor=none;align=center;fillColor=none;html=1;verticalAlign=middle;whiteSpace=wrap;rounded=0;fontSize=12;fontFamily=Helvetica;fontColor=default;" vertex="1" parent="WIyWlLk6GJQsqaUBKTNV-1">
          <mxGeometry x="330" y="555" width="60" height="30" as="geometry" />
        </mxCell>
        <mxCell id="JFZDc9M5QBFUGFOhNHaX-89" value="" style="rounded=0;whiteSpace=wrap;html=1;fontFamily=Helvetica;fontSize=12;fontColor=default;fillColor=#FFFFCC;gradientColor=none;" vertex="1" parent="WIyWlLk6GJQsqaUBKTNV-1">
          <mxGeometry x="-380" y="-180" width="80" height="60" as="geometry" />
        </mxCell>
        <mxCell id="JFZDc9M5QBFUGFOhNHaX-92" value="" style="rounded=0;whiteSpace=wrap;html=1;fontFamily=Helvetica;fontSize=12;fontColor=default;fillColor=#FFFFCC;gradientColor=none;" vertex="1" parent="WIyWlLk6GJQsqaUBKTNV-1">
          <mxGeometry x="-240" y="-180" width="80" height="60" as="geometry" />
        </mxCell>
        <mxCell id="JFZDc9M5QBFUGFOhNHaX-93" value="" style="rounded=0;whiteSpace=wrap;html=1;fontFamily=Helvetica;fontSize=12;fontColor=default;fillColor=#FFFFCC;gradientColor=none;" vertex="1" parent="WIyWlLk6GJQsqaUBKTNV-1">
          <mxGeometry x="-90" y="-180" width="80" height="60" as="geometry" />
        </mxCell>
        <mxCell id="JFZDc9M5QBFUGFOhNHaX-94" value="" style="rounded=0;whiteSpace=wrap;html=1;fontFamily=Helvetica;fontSize=12;fontColor=default;fillColor=#FFFFCC;gradientColor=none;" vertex="1" parent="WIyWlLk6GJQsqaUBKTNV-1">
          <mxGeometry x="57.5" y="-180" width="80" height="60" as="geometry" />
        </mxCell>
        <mxCell id="JFZDc9M5QBFUGFOhNHaX-95" value="" style="rounded=0;whiteSpace=wrap;html=1;fontFamily=Helvetica;fontSize=12;fontColor=default;fillColor=#FFFFCC;gradientColor=none;" vertex="1" parent="WIyWlLk6GJQsqaUBKTNV-1">
          <mxGeometry x="210" y="-180" width="80" height="60" as="geometry" />
        </mxCell>
        <mxCell id="JFZDc9M5QBFUGFOhNHaX-96" value="" style="rounded=0;whiteSpace=wrap;html=1;fontFamily=Helvetica;fontSize=12;fontColor=default;fillColor=#FFFFCC;gradientColor=none;" vertex="1" parent="WIyWlLk6GJQsqaUBKTNV-1">
          <mxGeometry x="360" y="-180" width="80" height="60" as="geometry" />
        </mxCell>
        <mxCell id="JFZDc9M5QBFUGFOhNHaX-97" value="" style="rounded=0;whiteSpace=wrap;html=1;fontFamily=Helvetica;fontSize=12;fontColor=default;fillColor=#FFFFCC;gradientColor=none;" vertex="1" parent="WIyWlLk6GJQsqaUBKTNV-1">
          <mxGeometry x="510" y="-180" width="80" height="60" as="geometry" />
        </mxCell>
        <mxCell id="JFZDc9M5QBFUGFOhNHaX-98" value="" style="rounded=0;whiteSpace=wrap;html=1;fontFamily=Helvetica;fontSize=12;fontColor=default;fillColor=#FFFFCC;gradientColor=none;" vertex="1" parent="WIyWlLk6GJQsqaUBKTNV-1">
          <mxGeometry x="660" y="-180" width="80" height="60" as="geometry" />
        </mxCell>
        <mxCell id="JFZDc9M5QBFUGFOhNHaX-100" value="" style="endArrow=classic;html=1;rounded=0;fontFamily=Helvetica;fontSize=12;fontColor=default;" edge="1" parent="WIyWlLk6GJQsqaUBKTNV-1">
          <mxGeometry width="50" height="50" relative="1" as="geometry">
            <mxPoint x="-240" y="-150" as="sourcePoint" />
            <mxPoint x="-300" y="-150" as="targetPoint" />
          </mxGeometry>
        </mxCell>
        <mxCell id="JFZDc9M5QBFUGFOhNHaX-101" value="" style="endArrow=classic;html=1;rounded=0;fontFamily=Helvetica;fontSize=12;fontColor=default;" edge="1" parent="WIyWlLk6GJQsqaUBKTNV-1">
          <mxGeometry width="50" height="50" relative="1" as="geometry">
            <mxPoint x="-90" y="-150.5" as="sourcePoint" />
            <mxPoint x="-160" y="-150.5" as="targetPoint" />
          </mxGeometry>
        </mxCell>
        <mxCell id="JFZDc9M5QBFUGFOhNHaX-102" value="" style="endArrow=classic;html=1;rounded=0;fontFamily=Helvetica;fontSize=12;fontColor=default;" edge="1" parent="WIyWlLk6GJQsqaUBKTNV-1">
          <mxGeometry width="50" height="50" relative="1" as="geometry">
            <mxPoint x="60" y="-150.5" as="sourcePoint" />
            <mxPoint x="-10" y="-150.5" as="targetPoint" />
          </mxGeometry>
        </mxCell>
        <mxCell id="JFZDc9M5QBFUGFOhNHaX-103" value="" style="endArrow=classic;html=1;rounded=0;fontFamily=Helvetica;fontSize=12;fontColor=default;" edge="1" parent="WIyWlLk6GJQsqaUBKTNV-1">
          <mxGeometry width="50" height="50" relative="1" as="geometry">
            <mxPoint x="207.5" y="-150.5" as="sourcePoint" />
            <mxPoint x="137.5" y="-150.5" as="targetPoint" />
          </mxGeometry>
        </mxCell>
        <mxCell id="JFZDc9M5QBFUGFOhNHaX-104" value="" style="endArrow=classic;html=1;rounded=0;fontFamily=Helvetica;fontSize=12;fontColor=default;" edge="1" parent="WIyWlLk6GJQsqaUBKTNV-1">
          <mxGeometry width="50" height="50" relative="1" as="geometry">
            <mxPoint x="360" y="-150.5" as="sourcePoint" />
            <mxPoint x="290" y="-150.5" as="targetPoint" />
          </mxGeometry>
        </mxCell>
        <mxCell id="JFZDc9M5QBFUGFOhNHaX-105" value="" style="endArrow=classic;html=1;rounded=0;fontFamily=Helvetica;fontSize=12;fontColor=default;" edge="1" parent="WIyWlLk6GJQsqaUBKTNV-1">
          <mxGeometry width="50" height="50" relative="1" as="geometry">
            <mxPoint x="510" y="-150.5" as="sourcePoint" />
            <mxPoint x="440" y="-150.5" as="targetPoint" />
          </mxGeometry>
        </mxCell>
        <mxCell id="JFZDc9M5QBFUGFOhNHaX-106" value="" style="endArrow=classic;html=1;rounded=0;fontFamily=Helvetica;fontSize=12;fontColor=default;" edge="1" parent="WIyWlLk6GJQsqaUBKTNV-1">
          <mxGeometry width="50" height="50" relative="1" as="geometry">
            <mxPoint x="660" y="-150" as="sourcePoint" />
            <mxPoint x="590" y="-150" as="targetPoint" />
          </mxGeometry>
        </mxCell>
        <mxCell id="JFZDc9M5QBFUGFOhNHaX-107" value="&lt;font style=&quot;font-size: 24px;&quot;&gt;Axon&lt;/font&gt;" style="text;strokeColor=none;align=center;fillColor=none;html=1;verticalAlign=middle;whiteSpace=wrap;rounded=0;fontSize=12;fontFamily=Helvetica;fontColor=default;" vertex="1" parent="WIyWlLk6GJQsqaUBKTNV-1">
          <mxGeometry x="-370" y="-80" width="60" height="30" as="geometry" />
        </mxCell>
        <mxCell id="JFZDc9M5QBFUGFOhNHaX-108" value="" style="rounded=0;whiteSpace=wrap;html=1;fontFamily=Helvetica;fontSize=12;fontColor=default;fillColor=#FFCCCC;gradientColor=none;" vertex="1" parent="WIyWlLk6GJQsqaUBKTNV-1">
          <mxGeometry x="-380" y="670" width="80" height="60" as="geometry" />
        </mxCell>
        <mxCell id="JFZDc9M5QBFUGFOhNHaX-109" value="" style="rounded=0;whiteSpace=wrap;html=1;fontFamily=Helvetica;fontSize=12;fontColor=default;fillColor=#FFCCCC;gradientColor=none;" vertex="1" parent="WIyWlLk6GJQsqaUBKTNV-1">
          <mxGeometry x="-240" y="670" width="80" height="60" as="geometry" />
        </mxCell>
        <mxCell id="JFZDc9M5QBFUGFOhNHaX-110" value="" style="rounded=0;whiteSpace=wrap;html=1;fontFamily=Helvetica;fontSize=12;fontColor=default;fillColor=#FFCCCC;gradientColor=none;" vertex="1" parent="WIyWlLk6GJQsqaUBKTNV-1">
          <mxGeometry x="-90" y="670" width="80" height="60" as="geometry" />
        </mxCell>
        <mxCell id="JFZDc9M5QBFUGFOhNHaX-111" value="" style="rounded=0;whiteSpace=wrap;html=1;fontFamily=Helvetica;fontSize=12;fontColor=default;fillColor=#FFCCCC;gradientColor=none;" vertex="1" parent="WIyWlLk6GJQsqaUBKTNV-1">
          <mxGeometry x="57.5" y="670" width="80" height="60" as="geometry" />
        </mxCell>
        <mxCell id="JFZDc9M5QBFUGFOhNHaX-112" value="" style="rounded=0;whiteSpace=wrap;html=1;fontFamily=Helvetica;fontSize=12;fontColor=default;fillColor=#FFCCCC;gradientColor=none;" vertex="1" parent="WIyWlLk6GJQsqaUBKTNV-1">
          <mxGeometry x="210" y="670" width="80" height="60" as="geometry" />
        </mxCell>
        <mxCell id="JFZDc9M5QBFUGFOhNHaX-113" value="" style="rounded=0;whiteSpace=wrap;html=1;fontFamily=Helvetica;fontSize=12;fontColor=default;fillColor=#FFCCCC;gradientColor=none;" vertex="1" parent="WIyWlLk6GJQsqaUBKTNV-1">
          <mxGeometry x="360" y="670" width="80" height="60" as="geometry" />
        </mxCell>
        <mxCell id="JFZDc9M5QBFUGFOhNHaX-114" value="" style="rounded=0;whiteSpace=wrap;html=1;fontFamily=Helvetica;fontSize=12;fontColor=default;fillColor=#FFCCCC;gradientColor=none;" vertex="1" parent="WIyWlLk6GJQsqaUBKTNV-1">
          <mxGeometry x="510" y="670" width="80" height="60" as="geometry" />
        </mxCell>
        <mxCell id="JFZDc9M5QBFUGFOhNHaX-115" value="" style="rounded=0;whiteSpace=wrap;html=1;fontFamily=Helvetica;fontSize=12;fontColor=default;fillColor=#FFCCCC;gradientColor=none;" vertex="1" parent="WIyWlLk6GJQsqaUBKTNV-1">
          <mxGeometry x="660" y="670" width="80" height="60" as="geometry" />
        </mxCell>
        <mxCell id="JFZDc9M5QBFUGFOhNHaX-116" value="" style="endArrow=classic;html=1;rounded=0;fontFamily=Helvetica;fontSize=12;fontColor=default;" edge="1" parent="WIyWlLk6GJQsqaUBKTNV-1">
          <mxGeometry width="50" height="50" relative="1" as="geometry">
            <mxPoint x="-240" y="700" as="sourcePoint" />
            <mxPoint x="-300" y="700" as="targetPoint" />
          </mxGeometry>
        </mxCell>
        <mxCell id="JFZDc9M5QBFUGFOhNHaX-117" value="" style="endArrow=classic;html=1;rounded=0;fontFamily=Helvetica;fontSize=12;fontColor=default;" edge="1" parent="WIyWlLk6GJQsqaUBKTNV-1">
          <mxGeometry width="50" height="50" relative="1" as="geometry">
            <mxPoint x="-90" y="699.5" as="sourcePoint" />
            <mxPoint x="-160" y="699.5" as="targetPoint" />
          </mxGeometry>
        </mxCell>
        <mxCell id="JFZDc9M5QBFUGFOhNHaX-118" value="" style="endArrow=classic;html=1;rounded=0;fontFamily=Helvetica;fontSize=12;fontColor=default;" edge="1" parent="WIyWlLk6GJQsqaUBKTNV-1">
          <mxGeometry width="50" height="50" relative="1" as="geometry">
            <mxPoint x="60" y="699.5" as="sourcePoint" />
            <mxPoint x="-10" y="699.5" as="targetPoint" />
          </mxGeometry>
        </mxCell>
        <mxCell id="JFZDc9M5QBFUGFOhNHaX-119" value="" style="endArrow=classic;html=1;rounded=0;fontFamily=Helvetica;fontSize=12;fontColor=default;" edge="1" parent="WIyWlLk6GJQsqaUBKTNV-1">
          <mxGeometry width="50" height="50" relative="1" as="geometry">
            <mxPoint x="207.5" y="699.5" as="sourcePoint" />
            <mxPoint x="137.5" y="699.5" as="targetPoint" />
          </mxGeometry>
        </mxCell>
        <mxCell id="JFZDc9M5QBFUGFOhNHaX-120" value="" style="endArrow=classic;html=1;rounded=0;fontFamily=Helvetica;fontSize=12;fontColor=default;" edge="1" parent="WIyWlLk6GJQsqaUBKTNV-1">
          <mxGeometry width="50" height="50" relative="1" as="geometry">
            <mxPoint x="360" y="699.5" as="sourcePoint" />
            <mxPoint x="290" y="699.5" as="targetPoint" />
          </mxGeometry>
        </mxCell>
        <mxCell id="JFZDc9M5QBFUGFOhNHaX-121" value="" style="endArrow=classic;html=1;rounded=0;fontFamily=Helvetica;fontSize=12;fontColor=default;" edge="1" parent="WIyWlLk6GJQsqaUBKTNV-1">
          <mxGeometry width="50" height="50" relative="1" as="geometry">
            <mxPoint x="510" y="699.5" as="sourcePoint" />
            <mxPoint x="440" y="699.5" as="targetPoint" />
          </mxGeometry>
        </mxCell>
        <mxCell id="JFZDc9M5QBFUGFOhNHaX-122" value="" style="endArrow=classic;html=1;rounded=0;fontFamily=Helvetica;fontSize=12;fontColor=default;" edge="1" parent="WIyWlLk6GJQsqaUBKTNV-1">
          <mxGeometry width="50" height="50" relative="1" as="geometry">
            <mxPoint x="660" y="700" as="sourcePoint" />
            <mxPoint x="590" y="700" as="targetPoint" />
          </mxGeometry>
        </mxCell>
        <mxCell id="JFZDc9M5QBFUGFOhNHaX-123" value="CKB&amp;nbsp;" style="text;strokeColor=none;align=center;fillColor=none;html=1;verticalAlign=middle;whiteSpace=wrap;rounded=0;fontSize=24;fontFamily=Helvetica;fontColor=default;" vertex="1" parent="WIyWlLk6GJQsqaUBKTNV-1">
          <mxGeometry x="-360" y="610" width="60" height="30" as="geometry" />
        </mxCell>
        <mxCell id="JFZDc9M5QBFUGFOhNHaX-124" value="&lt;font style=&quot;font-size: 14px;&quot;&gt;period + 1&lt;br&gt;&lt;/font&gt;" style="rounded=1;whiteSpace=wrap;html=1;fontSize=12;glass=0;strokeWidth=1;shadow=0;fillColor=#FFB366;" vertex="1" parent="WIyWlLk6GJQsqaUBKTNV-1">
          <mxGeometry x="610" y="480" width="140" height="40" as="geometry" />
        </mxCell>
        <mxCell id="JFZDc9M5QBFUGFOhNHaX-125" value="&lt;font style=&quot;font-size: 14px;&quot;&gt;withdraw AT cell&lt;br&gt;&lt;/font&gt;" style="rounded=1;whiteSpace=wrap;html=1;fontSize=12;glass=0;strokeWidth=1;shadow=0;" vertex="1" parent="WIyWlLk6GJQsqaUBKTNV-1">
          <mxGeometry x="425" y="480" width="140" height="40" as="geometry" />
        </mxCell>
        <mxCell id="JFZDc9M5QBFUGFOhNHaX-126" value="" style="endArrow=classic;html=1;rounded=0;fontSize=12;" edge="1" parent="WIyWlLk6GJQsqaUBKTNV-1">
          <mxGeometry width="50" height="50" relative="1" as="geometry">
            <mxPoint x="490" y="590" as="sourcePoint" />
            <mxPoint x="490" y="520" as="targetPoint" />
          </mxGeometry>
        </mxCell>
        <mxCell id="JFZDc9M5QBFUGFOhNHaX-127" value="" style="endArrow=classic;html=1;rounded=0;fontSize=12;entryX=0.45;entryY=1.063;entryDx=0;entryDy=0;entryPerimeter=0;" edge="1" parent="WIyWlLk6GJQsqaUBKTNV-1" target="JFZDc9M5QBFUGFOhNHaX-53">
          <mxGeometry width="50" height="50" relative="1" as="geometry">
            <mxPoint x="580" y="590" as="sourcePoint" />
            <mxPoint x="-50" y="590" as="targetPoint" />
            <Array as="points">
              <mxPoint x="-52" y="590" />
            </Array>
          </mxGeometry>
        </mxCell>
        <mxCell id="JFZDc9M5QBFUGFOhNHaX-129" value="" style="endArrow=classic;html=1;rounded=0;fontSize=12;" edge="1" parent="WIyWlLk6GJQsqaUBKTNV-1">
          <mxGeometry width="50" height="50" relative="1" as="geometry">
            <mxPoint x="279.5" y="410" as="sourcePoint" />
            <mxPoint x="279.5" y="480" as="targetPoint" />
          </mxGeometry>
        </mxCell>
        <mxCell id="JFZDc9M5QBFUGFOhNHaX-85" value="output.period == {checkpoint}.unlock_period + checkpoint.period" style="text;strokeColor=none;align=center;fillColor=none;html=1;verticalAlign=middle;whiteSpace=wrap;rounded=0;fontSize=12;fontFamily=Helvetica;fontColor=default;" vertex="1" parent="WIyWlLk6GJQsqaUBKTNV-1">
          <mxGeometry x="650" y="575" width="60" height="30" as="geometry" />
        </mxCell>
        <mxCell id="JFZDc9M5QBFUGFOhNHaX-132" value="" style="endArrow=none;html=1;rounded=0;fontFamily=Helvetica;fontSize=24;fontColor=default;" edge="1" parent="WIyWlLk6GJQsqaUBKTNV-1">
          <mxGeometry width="50" height="50" relative="1" as="geometry">
            <mxPoint x="585" y="417.5" as="sourcePoint" />
            <mxPoint x="585" y="377.5" as="targetPoint" />
          </mxGeometry>
        </mxCell>
        <mxCell id="JFZDc9M5QBFUGFOhNHaX-133" value="" style="endArrow=none;html=1;rounded=0;fontFamily=Helvetica;fontSize=24;fontColor=default;" edge="1" parent="WIyWlLk6GJQsqaUBKTNV-1">
          <mxGeometry width="50" height="50" relative="1" as="geometry">
            <mxPoint x="680" y="420" as="sourcePoint" />
            <mxPoint x="490" y="420" as="targetPoint" />
          </mxGeometry>
        </mxCell>
        <mxCell id="JFZDc9M5QBFUGFOhNHaX-136" value="" style="endArrow=classic;html=1;rounded=0;fontSize=12;" edge="1" parent="WIyWlLk6GJQsqaUBKTNV-1">
          <mxGeometry width="50" height="50" relative="1" as="geometry">
            <mxPoint x="490" y="420" as="sourcePoint" />
            <mxPoint x="490" y="480" as="targetPoint" />
          </mxGeometry>
        </mxCell>
        <mxCell id="JFZDc9M5QBFUGFOhNHaX-137" value="" style="endArrow=classic;html=1;rounded=0;fontSize=12;" edge="1" parent="WIyWlLk6GJQsqaUBKTNV-1">
          <mxGeometry width="50" height="50" relative="1" as="geometry">
            <mxPoint x="679.5" y="420" as="sourcePoint" />
            <mxPoint x="679.5" y="480" as="targetPoint" />
          </mxGeometry>
        </mxCell>
        <mxCell id="JFZDc9M5QBFUGFOhNHaX-138" value="" style="endArrow=classic;html=1;rounded=0;fontSize=12;" edge="1" parent="WIyWlLk6GJQsqaUBKTNV-1">
          <mxGeometry width="50" height="50" relative="1" as="geometry">
            <mxPoint x="679.5" y="520" as="sourcePoint" />
            <mxPoint x="680" y="540" as="targetPoint" />
          </mxGeometry>
        </mxCell>
        <mxCell id="JFZDc9M5QBFUGFOhNHaX-139" value="&lt;font style=&quot;font-size: 12px;&quot;&gt;Yes&lt;/font&gt;" style="text;strokeColor=none;align=center;fillColor=none;html=1;verticalAlign=middle;whiteSpace=wrap;rounded=0;fontSize=24;fontFamily=Helvetica;fontColor=default;" vertex="1" parent="WIyWlLk6GJQsqaUBKTNV-1">
          <mxGeometry x="585" y="380" width="60" height="30" as="geometry" />
        </mxCell>
      </root>
    </mxGraphModel>
  </diagram>
</mxfile>
